<?xml version="1.0" standalone="no"?><!DOCTYPE svg PUBLIC "-//W3C//DTD SVG 1.1//EN" "http://www.w3.org/Graphics/SVG/1.1/DTD/svg11.dtd"><svg t="1779330241415" class="icon" viewBox="0 0 1024 1024" version="1.1" xmlns="http://www.w3.org/2000/svg" p-id="1816" xmlns:xlink="http://www.w3.org/1999/xlink" width="200" height="200"><path d="M508.3136 499.2a134.0416 134.0416 0 0 0-30.4128 46.592l-30.0032 89.7024c-1.536 4.4032-4.608 6.5536-9.216 6.5536s-7.68-2.1504-9.216-6.5536l-31.0272-89.7024q-5.12-13.0048-12.5952-24.4736-7.68-11.8784-17.92-22.1184a136.04864 136.04864 0 0 0-46.592-30.6176l-89.4976-30.9248c-4.4032-1.536-6.5536-4.608-6.5536-9.1136 0-4.608 2.1504-7.68 6.5536-9.216l90.112-30.72c17.7152-6.8608 33.28-16.9984 46.6944-30.3104a133.12 133.12 0 0 0 30.4128-46.592l30.8224-90.2144c1.536-4.3008 4.608-6.4512 9.216-6.4512s7.68 2.1504 9.1136 6.4512l31.6416 91.3408a135.63904 135.63904 0 0 0 77.4144 76.8l88.8832 29.696c4.4032 1.536 6.656 4.608 6.656 9.216 0 4.5056-2.2528 7.5776-6.656 9.1136l-91.136 31.0272c-17.7152 6.9632-33.28 17.1008-46.6944 30.5152z m226.4064 47.616l-14.0288-40.8576c-1.024-2.8672-3.072-4.3008-6.144-4.3008s-5.12 1.4336-6.0416 4.3008l-13.824 40.2432c-7.168 18.2272-19.8656 30.9248-38.1952 38.0928l-40.2432 13.7216c-2.8672 1.024-4.3008 3.072-4.3008 6.0416 0 3.072 1.4336 5.12 4.3008 6.144l39.936 13.824c18.3296 7.2704 31.0272 19.968 38.1952 38.2976l13.9264 39.936q0.7168 2.1504 2.2528 3.1744 1.536 1.1264 3.7888 1.1264 2.3552 0 3.8912-1.1264 1.536-1.024 2.2528-3.1744l13.4144-39.7312c7.168-18.3296 19.8656-31.1296 38.2976-38.2976l40.6528-13.824c2.8672-1.024 4.3008-3.072 4.3008-6.0416 0-3.072-1.4336-5.12-4.3008-6.144l-39.6288-13.312c-18.3296-7.0656-31.232-19.8656-38.5024-38.0928zM521.216 739.84l-9.216-26.7264c-0.8192-2.048-2.2528-3.072-4.4032-3.072s-3.6864 1.024-4.4032 3.072l-8.9088 26.3168c-4.8128 12.288-13.312 20.8896-25.8048 25.6l-26.2144 8.9088c-2.048 0.7168-3.072 2.2528-3.072 4.4032s1.024 3.584 3.072 4.3008l26.0096 9.1136q9.3184 3.6864 15.7696 10.1376 6.3488 6.4512 10.0352 15.5648l9.0112 26.112c0.7168 2.048 2.1504 3.072 4.3008 3.072 2.2528 0 3.6864-1.024 4.4032-3.072l8.8064-26.0096c4.8128-12.3904 13.312-20.8896 25.7024-25.7024l26.5216-9.0112c2.048-0.7168 3.072-2.1504 3.072-4.4032 0-2.1504-1.024-3.584-3.072-4.3008l-25.8048-8.8064c-12.288-4.8128-20.992-13.312-25.8048-25.4976z" p-id="1817"></path></svg>