<?xml version="1.0" standalone="no"?><!DOCTYPE svg PUBLIC "-//W3C//DTD SVG 1.1//EN" "http://www.w3.org/Graphics/SVG/1.1/DTD/svg11.dtd"><svg t="1778908276106" class="icon" viewBox="0 0 1024 1024" version="1.1" xmlns="http://www.w3.org/2000/svg" p-id="15226" xmlns:xlink="http://www.w3.org/1999/xlink" width="200" height="200"><path d="M932.4 492l-294-126 117.5-83.9C694.6 217.6 608.3 177 512.4 177 349.6 177 214 292.7 183 446.4l-78.4-32.5C149.3 229.9 314.6 93 512.4 93c124.2 0 235.4 54.3 312.3 139.9L932.4 156v336zM268.8 744c61.3 64.5 147.6 105 243.6 105 163.4 0 299.4-116.6 329.6-271.1l78.3 33.5C875.9 795.8 710.4 933 512.4 933c-124.2 0-235.4-54.2-312.3-139.9L92.4 870V534l294 126-117.6 84z" fill="#333333" p-id="15227"></path></svg>