<?xml version="1.0" encoding="UTF-8" standalone="no"?>
<svg
   t="1778908343512"
   class="icon"
   viewBox="0 0 1024 1024"
   version="1.1"
   p-id="17099"
   width="200"
   height="200"
   id="svg2"
   sodipodi:docname="zoomout.svg"
   inkscape:version="1.4.4 (dcaf3e7, 2026-05-05)"
   xmlns:inkscape="http://www.inkscape.org/namespaces/inkscape"
   xmlns:sodipodi="http://sodipodi.sourceforge.net/DTD/sodipodi-0.dtd"
   xmlns="http://www.w3.org/2000/svg"
   xmlns:svg="http://www.w3.org/2000/svg">
  <defs
     id="defs2" />
  <sodipodi:namedview
     id="namedview2"
     pagecolor="#ffffff"
     bordercolor="#000000"
     borderopacity="0.25"
     inkscape:showpageshadow="2"
     inkscape:pageopacity="0.0"
     inkscape:pagecheckerboard="0"
     inkscape:deskcolor="#d1d1d1"
     inkscape:zoom="4.425"
     inkscape:cx="100"
     inkscape:cy="100"
     inkscape:window-width="1920"
     inkscape:window-height="1129"
     inkscape:window-x="-8"
     inkscape:window-y="-8"
     inkscape:window-maximized="1"
     inkscape:current-layer="svg2" />
  <path
     d="M386.983914 0c212.793806 0 385.354323 172.571527 385.354323 385.354323 0 212.804817-172.560516 385.365333-385.354323 385.365333C174.201118 770.719656 1.629591 598.148129 1.629591 385.354323 1.629591 172.571527 174.201118 0 386.983914 0z m0 116.658925c-148.358882 0-268.684387 120.325505-268.684387 268.695398 0 148.369892 120.325505 268.695398 268.684387 268.695397 148.369892 0 268.684387-120.325505 268.684387-268.695397 0-148.369892-120.314495-268.695398-268.684387-268.695398zM653.961634 722.558624c-9.204989 6.705548-11.396129 8.91871-4.426322 18.024602 54.150882 70.832172 112.64 146.046624 166.559656 216.636559 113.498839 148.568086 287.898151-23.783226 140.651355-139.021763-69.940301-54.745462-144.472086-114.115441-214.643613-169.09213-9.017806-7.068903-11.252989-4.910796-18.079656 4.217119a318.76129 318.76129 0 0 1-70.06142 69.235613z"
     fill="#434A54"
     p-id="17100"
     id="path1" />
  <path
     d="M205.284473 334.275441h126.788817a4.888774 4.888774 0 0 0 4.877764-4.877764V202.597849c0-5.362237 4.38228-9.744516 9.755527-9.744516h84.793806c5.373247 0 9.755527 4.38228 9.755527 9.744516v126.799828c0 2.675613 2.19114 4.877763 4.877763 4.877764h126.788818c5.373247 0 9.755527 4.38228 9.755527 9.755527v84.782795a9.777548 9.777548 0 0 1-9.755527 9.755527H446.133677a4.877763 4.877763 0 0 0-4.877763 4.877764v126.766795a9.777548 9.777548 0 0 1-9.755527 9.755527h-84.793806a9.777548 9.777548 0 0 1-9.755527-9.755527V443.447054a4.877763 4.877763 0 0 0-4.877764-4.877764H205.284473a9.777548 9.777548 0 0 1-9.755527-9.755527v-84.782795c0-5.373247 4.38228-9.755527 9.755527-9.755527z"
     fill="#434A54"
     p-id="17101"
     id="path2" />
  <rect
     style="fill:#ffffff;stroke-width:5.12"
     id="rect2"
     width="175.87344"
     height="163.14577"
     x="303.15027"
     y="171.24519" />
  <rect
     style="fill:#ffffff;stroke-width:5.12"
     id="rect3"
     width="181.65875"
     height="130.74803"
     x="292.73672"
     y="452.41129" />
  <rect
     style="fill:#ffffff;stroke-width:5.12"
     id="rect4"
     width="200.17175"
     height="131.90509"
     x="284.6373"
     y="438.52655" />
</svg>
